<?xml version="1.0" standalone="no"?>
<!DOCTYPE svg PUBLIC "-//W3C//DTD SVG 20010904//EN"
 "http://www.w3.org/TR/2001/REC-SVG-20010904/DTD/svg10.dtd">
<svg version="1.0" xmlns="http://www.w3.org/2000/svg"
 width="400.000000pt" height="400.000000pt" viewBox="0 0 400.000000 400.000000"
 preserveAspectRatio="xMidYMid meet">
<metadata>
Created by potrace 1.14, written by Peter Selinger 2001-2017
</metadata>
<g transform="translate(0.000000,400.000000) scale(0.100000,-0.100000)"
fill="#000000" stroke="none">
<path d="M1606 3001 c-7 -53 -43 -201 -50 -209 -3 -2 -26 3 -52 12 -26 9 -51
16 -56 16 -4 0 7 -24 26 -52 18 -29 41 -75 51 -101 30 -79 85 -98 121 -41 21
31 12 70 -26 109 l-28 30 66 91 c42 57 78 95 95 102 17 6 26 16 22 22 -7 12
-131 70 -150 70 -7 0 -15 -20 -19 -49z"/>
<path d="M2815 2993 c2 -32 7 -100 10 -151 l5 -93 -48 40 c-27 23 -54 41 -60
41 -6 0 -19 -12 -28 -26 -17 -25 -18 -26 -131 -22 -97 3 -113 1 -111 -12 3
-12 25 -16 116 -18 110 -3 112 -3 108 -25 -22 -107 -33 -142 -66 -212 -40 -85
-78 -142 -149 -225 l-45 -52 40 20 c154 78 286 241 325 397 11 46 23 64 42 65
10 0 9 -402 -2 -419 -6 -10 -27 -12 -81 -9 -54 3 -68 1 -55 -7 45 -26 85 -70
100 -109 l17 -44 36 10 c55 15 90 45 101 85 7 24 8 162 4 386 l-6 349 29 23
c16 13 26 26 23 29 -6 6 -142 36 -165 36 -11 0 -13 -12 -9 -57z"/>
<path d="M2189 2979 l-22 -32 -169 5 c-92 3 -168 4 -168 2 0 -27 16 -29 180
-25 l170 3 0 -123 c0 -155 -17 -412 -31 -462 -15 -57 -44 -70 -131 -62 l-73 6
47 -41 c26 -22 53 -56 59 -75 16 -42 29 -43 98 -9 104 52 125 123 143 484 9
173 15 237 25 243 25 15 13 36 -42 77 -30 22 -56 40 -59 40 -3 0 -15 -14 -27
-31z"/>
<path d="M957 2943 c-3 -5 -8 -35 -11 -68 -13 -107 -11 -104 -74 -107 l-57 -3
0 -45 0 -45 51 -3 50 -3 -10 -82 -11 -82 -62 -3 -63 -3 0 -49 0 -50 55 0 56 0
-6 -32 c-3 -18 -9 -59 -14 -90 l-8 -58 33 0 c37 0 39 4 49 90 11 93 9 90 79
90 l63 0 -8 -57 c-5 -32 -11 -73 -14 -90 -6 -32 -5 -33 28 -33 39 0 39 2 53
118 l7 62 58 0 59 0 0 50 0 50 -50 0 c-27 0 -50 4 -50 10 0 5 5 43 11 85 l11
75 59 0 59 0 0 50 0 50 -51 0 -51 0 6 58 c4 31 10 72 13 90 5 31 4 32 -30 32
-34 0 -35 -1 -41 -45 -3 -25 -9 -65 -12 -90 l-6 -45 -65 0 -65 0 5 33 c3 17 9
58 13 90 l6 57 -30 0 c-17 0 -33 -3 -35 -7z m149 -325 c-4 -29 -9 -68 -12 -85
l-6 -33 -65 0 c-52 0 -64 3 -60 14 3 8 9 46 13 85 l7 71 65 0 65 0 -7 -52z"/>
<path d="M2964 2810 c11 -186 84 -366 195 -483 l68 -71 32 37 c18 20 48 42 67
49 19 6 34 14 34 18 0 3 -30 21 -68 40 -75 39 -184 141 -220 207 l-23 42 33
17 c18 9 64 36 101 60 37 24 78 44 92 44 26 0 37 11 27 26 -7 10 -127 94 -135
94 -2 0 -18 -28 -35 -63 -17 -34 -46 -80 -65 -102 -33 -38 -34 -39 -45 -18 -6
11 -23 58 -37 104 l-26 84 5 -85z"/>
<path d="M1750 2825 c0 -23 -58 -170 -125 -317 -63 -138 -63 -138 -156 -138
-22 0 -39 -5 -39 -10 0 -20 70 -150 81 -150 6 0 18 9 27 19 10 11 73 51 142
89 l125 70 12 -44 c14 -56 29 -74 59 -74 51 0 78 61 55 123 -15 38 -68 85
-133 118 -33 17 -58 27 -56 22 2 -4 14 -29 28 -55 13 -26 21 -50 17 -54 -8 -8
-124 -33 -155 -34 -21 0 -17 8 40 80 35 45 92 120 126 168 35 48 75 93 88 100
14 7 22 17 19 22 -8 13 -129 80 -143 80 -7 0 -12 -7 -12 -15z"/>
<path d="M3216 1836 c-4 -18 -24 -69 -46 -114 l-39 -82 -260 0 c-225 0 -260
-2 -255 -15 5 -11 31 -15 121 -17 l115 -3 -51 -76 c-28 -42 -87 -113 -131
-158 -45 -44 -79 -81 -75 -81 12 0 131 64 175 93 75 51 153 123 190 176 l35
50 75 1 75 0 20 -37 c41 -77 212 -222 261 -223 6 0 17 14 24 30 7 17 26 42 43
56 16 13 28 26 26 27 -2 1 -35 10 -74 20 -77 19 -196 73 -235 105 l-25 21 151
1 c83 0 154 3 158 7 8 8 -84 103 -100 103 -7 0 -25 -18 -41 -40 l-28 -40 -79
0 c-44 0 -76 4 -70 8 57 48 165 122 177 122 26 0 29 18 5 34 -13 8 -48 26 -79
40 l-57 25 -6 -33z"/>
<path d="M1261 1829 c-20 -27 -28 -30 -62 -27 -30 3 -38 0 -34 -10 3 -8 5 -16
5 -18 0 -2 21 -4 48 -4 l47 0 19 -61 c20 -63 72 -142 118 -178 l26 -21 21 35
c11 19 35 44 53 55 18 11 26 20 18 20 -30 0 -136 58 -168 92 l-33 35 26 11
c33 15 32 32 -8 63 -50 40 -53 40 -76 8z"/>
<path d="M2035 1834 c-16 -25 -20 -26 -96 -22 -67 3 -79 1 -77 -12 3 -12 21
-16 81 -18 l77 -3 0 -36 0 -35 -52 5 c-29 3 -64 9 -78 12 l-25 6 5 -95 c6
-122 11 -127 121 -133 139 -7 188 34 135 112 -19 28 -23 42 -16 55 6 10 10 33
10 51 0 18 8 41 17 51 17 19 16 20 -7 38 -13 10 -36 25 -51 34 -26 15 -27 15
-44 -10z m-9 -169 c4 -9 19 -15 35 -15 17 0 29 -5 29 -13 0 -25 -25 -37 -77
-37 l-53 0 0 40 c0 38 2 40 30 40 18 0 33 -6 36 -15z"/>
<path d="M2356 1833 c-18 -25 -20 -25 -103 -19 -82 7 -84 7 -74 -12 10 -18 18
-20 91 -15 l80 6 0 -43 0 -42 -62 5 c-35 3 -76 9 -92 13 l-28 7 3 -97 c5 -126
5 -126 155 -126 123 0 157 8 174 41 10 18 8 26 -9 50 -12 15 -21 34 -21 42 0
28 -13 25 -29 -6 l-16 -32 -80 0 -80 0 -3 38 -3 37 41 0 c24 0 48 -7 56 -15
38 -38 94 0 94 64 0 22 5 43 10 46 19 12 10 30 -29 58 -48 33 -51 33 -75 0z"/>
<path d="M2910 1855 c0 -3 11 -21 24 -38 14 -18 34 -55 46 -82 32 -75 63 -92
100 -55 43 43 13 103 -73 144 -60 28 -97 40 -97 31z"/>
<path d="M750 1828 c0 -13 -8 -50 -18 -83 -20 -65 -20 -65 -96 -50 l-39 8 26
-35 c15 -19 34 -54 42 -78 8 -24 20 -49 26 -57 18 -21 56 -15 78 14 24 29 21
55 -10 89 -20 21 -19 21 51 87 38 37 70 69 70 72 0 8 -101 55 -117 55 -7 0
-13 -10 -13 -22z"/>
<path d="M2710 1834 c0 -3 8 -18 19 -32 10 -15 31 -52 46 -82 38 -76 58 -87
95 -50 29 29 25 71 -8 103 -36 35 -152 81 -152 61z"/>
<path d="M1644 1788 c9 -13 33 -56 52 -95 32 -64 40 -73 64 -73 61 0 81 76 32
123 -28 27 -117 67 -148 67 -15 0 -15 -2 0 -22z"/>
<path d="M1032 1743 c-7 -32 -28 -93 -46 -135 -19 -43 -30 -78 -25 -78 11 0
111 98 150 146 14 17 35 37 47 43 12 6 22 16 22 20 0 7 -119 61 -133 61 -2 0
-8 -26 -15 -57z"/>
<path d="M850 1715 c0 -25 -41 -137 -77 -209 l-35 -69 -74 5 c-43 3 -74 1 -74
-4 0 -32 33 -118 46 -118 8 0 14 4 14 8 0 5 23 15 50 24 l50 16 0 -48 0 -48
-50 16 c-27 9 -52 14 -54 11 -2 -2 -9 -47 -15 -99 -6 -52 -17 -119 -24 -147
-8 -29 -11 -53 -6 -53 12 0 96 138 115 190 10 28 22 50 26 50 4 0 8 -63 8
-140 0 -127 2 -140 19 -150 25 -13 66 2 80 29 7 12 11 99 11 224 0 181 2 206
16 211 20 8 18 10 30 -39 7 -33 14 -41 35 -43 64 -7 81 73 27 125 -29 27 -87
63 -102 63 -3 0 1 -15 9 -34 l14 -33 -47 -6 c-26 -3 -49 -3 -51 -1 -3 3 18 28
45 57 28 28 65 70 84 92 18 22 42 43 52 47 31 13 17 28 -55 58 -52 23 -67 26
-67 15z"/>
<path d="M1131 1598 c-6 -29 -19 -72 -28 -95 -15 -40 -18 -43 -54 -43 -22 0
-39 -3 -39 -7 0 -18 46 -113 54 -113 5 0 17 6 25 14 18 15 178 87 200 89 8 1
18 -11 24 -28 14 -44 26 -55 58 -55 30 0 49 23 49 59 0 46 -97 120 -158 121
l-23 0 22 -30 c13 -16 21 -31 18 -33 -2 -3 -37 -7 -78 -11 l-73 -6 52 57 c29
32 61 61 71 65 11 4 19 11 19 16 0 10 -94 52 -115 52 -6 0 -17 -24 -24 -52z"/>
<path d="M3095 1523 c-28 -22 -173 -89 -226 -104 -78 -22 -67 -30 34 -23 l97
7 0 -42 0 -41 -131 0 c-100 0 -130 -3 -127 -12 3 -9 41 -14 131 -16 l127 -3 0
-45 0 -45 -185 3 c-171 3 -185 2 -185 -14 0 -17 16 -18 186 -18 l185 0 -3 -47
-3 -48 -75 3 c-69 2 -73 1 -55 -13 50 -38 76 -70 82 -96 6 -33 33 -38 86 -15
57 24 70 48 75 136 l5 80 186 2 c143 2 186 6 186 16 0 7 -22 30 -50 52 l-50
40 -35 -40 -35 -40 -102 0 -103 0 0 45 0 45 114 0 c63 0 117 4 120 9 6 9 -86
91 -102 91 -6 0 -19 -16 -31 -35 -18 -31 -25 -35 -61 -35 l-40 0 0 50 c0 43 3
50 23 55 19 5 65 12 90 14 16 2 2 19 -50 60 -29 23 -54 41 -55 41 -2 0 -12 -8
-23 -17z"/>
<path d="M2188 1451 l5 -51 -42 0 c-34 0 -41 3 -41 19 0 11 5 23 10 26 6 3 10
10 10 15 0 8 -20 14 -97 25 l-41 6 9 -38 c5 -21 9 -41 9 -45 0 -5 -27 -8 -60
-8 -49 0 -58 -3 -54 -15 5 -11 21 -15 60 -15 l54 0 0 -56 0 -57 -81 7 c-77 7
-80 7 -70 -12 9 -17 18 -19 88 -14 l77 5 -31 -39 c-17 -21 -47 -54 -66 -72
-30 -29 -38 -32 -56 -23 -34 19 -41 45 -41 154 0 81 3 107 15 117 24 20 17 33
-36 69 l-51 35 -19 -25 c-10 -13 -19 -28 -19 -32 0 -5 -27 -7 -60 -6 -33 1
-60 -1 -60 -4 0 -4 0 -11 0 -17 0 -6 27 -10 60 -10 l60 0 0 -128 0 -128 -60
-29 c-33 -16 -60 -31 -60 -33 0 -2 16 -31 36 -64 36 -59 54 -68 64 -32 3 10
27 52 54 91 l49 73 31 -52 c33 -56 76 -91 135 -109 20 -7 131 -14 257 -16
l220 -5 12 41 c7 22 24 53 37 69 32 39 32 42 -7 31 -58 -16 -68 -13 -62 20 11
55 -49 92 -174 107 l-52 7 70 -72 c38 -39 70 -75 70 -80 0 -23 -353 -27 -393
-4 -14 7 -4 14 50 37 38 16 89 35 116 44 26 9 47 19 47 23 0 5 -19 19 -42 33
l-43 26 208 0 c163 0 207 3 207 13 0 13 -70 87 -83 87 -4 0 -18 -18 -32 -40
-20 -32 -31 -40 -55 -40 -30 0 -30 1 -30 55 l0 55 90 0 c50 0 90 4 90 8 0 11
-74 82 -85 82 -6 0 -19 -14 -30 -30 -23 -35 -65 -42 -65 -11 0 10 7 24 15 31
24 20 18 27 -32 35 -27 3 -57 9 -69 11 -20 5 -21 2 -16 -45z m2 -136 l0 -55
-40 0 -40 0 0 55 0 55 40 0 40 0 0 -55z"/>
<path d="M1192 1316 c18 -24 41 -58 50 -75 19 -34 47 -40 72 -15 40 39 8 97
-66 119 -87 26 -94 22 -56 -29z"/>
<path d="M875 1308 c3 -13 12 -48 19 -79 16 -71 22 -79 53 -79 l25 0 -31 -35
c-36 -41 -36 -43 -15 -73 39 -55 114 -4 114 79 0 49 -21 108 -35 102 -7 -2
-16 5 -20 16 -6 19 -93 91 -110 91 -4 0 -4 -10 0 -22z"/>
<path d="M1074 1284 c3 -9 6 -74 6 -145 0 -125 1 -131 25 -154 23 -23 31 -25
130 -25 104 0 107 1 136 29 36 36 37 54 4 75 -17 11 -27 29 -31 56 -9 54 -20
58 -29 13 -12 -67 -20 -74 -78 -71 l-52 3 -3 84 c-2 67 0 87 14 102 19 21 20
20 -51 38 -58 16 -78 14 -71 -5z"/>
<path d="M1372 1194 c15 -31 28 -65 28 -76 0 -35 19 -58 49 -58 32 0 46 13 56
50 9 36 -30 90 -85 118 -74 37 -82 31 -48 -34z"/>
</g>
</svg>
